<svg xmlns="http://www.w3.org/2000/svg" xmlns:xlink="http://www.w3.org/1999/xlink" version="1.1" width="1000" height="1000" viewBox="0 0 1000 1000" xml:space="preserve">
<desc>Created with Fabric.js 3.5.0</desc>
<defs>
</defs>
<rect x="0" y="0" width="100%" height="100%" fill="#1d7373"/>
<g transform="matrix(1.5783 0 0 1.5783 500.0049 500.0044)" id="80135">
<path style="stroke: none; stroke-width: 1; stroke-dasharray: none; stroke-linecap: butt; stroke-dashoffset: 0; stroke-linejoin: miter; stroke-miterlimit: 4; is-custom-font: none; font-file-url: none; fill: rgb(255,255,255); fill-rule: nonzero; opacity: 1;" vector-effect="non-scaling-stroke" transform=" translate(-288, -256)" d="M 528 0 h -480 C 21.5 0 0 21.5 0 48 v 320 C 0 394.5 21.5 416 48 416 h 192 L 224 464 H 152 C 138.8 464 128 474.8 128 488 S 138.8 512 152 512 h 272 c 13.25 0 24 -10.75 24 -24 s -10.75 -24 -24 -24 H 352 L 336 416 h 192 c 26.5 0 48 -21.5 48 -48 v -320 C 576 21.5 554.5 0 528 0 z M 512 288 H 64 V 64 h 448 V 288 z" stroke-linecap="round"/>
</g>
</svg>